Results
version=1
nRows=19
nColumns=24
inDegrees=yes
endheader
time	pelvis_tilt	pelvis_list	pelvis_rotation	pelvis_tx	pelvis_ty	pelvis_tz	hip_flexion_r	hip_adduction_r	hip_rotation_r	knee_angle_r	ankle_angle_r	subtalar_angle_r	mtp_angle_r	hip_flexion_l	hip_adduction_l	hip_rotation_l	knee_angle_l	ankle_angle_l	subtalar_angle_l	mtp_angle_l	lumbar_extension	lumbar_bending	lumbar_rotation
      0.94666667	     -6.54652561	     -3.29406193	      2.31477967	     -0.35349500	      0.99172230	      0.33707930	     19.13596820	      8.06830302	     -3.41204417	    -19.71297788	      5.75722544	     -9.67482051	      0.79685840	     22.20260984	     -4.39503815	      0.78687425	    -71.06446038	     -3.96815430	     -9.90607144	      3.32205808	      4.54894862	      6.45231490	      2.20444613
      0.95083333	     -6.54117955	     -3.22530030	      2.15050061	     -0.34880473	      0.99245027	      0.33737230	     18.64492128	      8.05457456	     -3.30976558	    -19.38754583	      5.86244206	     -9.54122961	      0.79091829	     22.84683013	     -4.31728328	      0.73397233	    -71.08199450	     -3.47621640	    -10.10696116	      3.28771998	      4.50537640	      6.41318514	      2.28718351
      0.95500000	     -6.49656031	     -3.16648514	      1.96926245	     -0.34413200	      0.99319278	      0.33769727	     18.11371919	      8.05494566	     -3.19777261	    -19.05991775	      5.96911933	     -9.23288857	      0.76567590	     23.43863976	     -4.26987973	      0.66059710	    -71.06233817	     -2.95680355	    -10.14292411	      3.14700121	      4.38177545	      6.36659775	      2.63720294
      0.95916667	     -6.46446152	     -3.09494660	      1.78375170	     -0.33945932	      0.99389235	      0.33799845	     17.59817421	      8.03701526	     -3.08516678	    -18.73947694	      6.07809313	     -8.99301387	      0.74367446	     24.02598433	     -4.20447783	      0.58378824	    -70.98438684	     -2.46981882	    -10.23367274	      2.99768941	      4.28731458	      6.31670608	      2.87645060
      0.96333333	     -6.44870447	     -3.03515685	      1.59815705	     -0.33479655	      0.99453753	      0.33829096	     17.09702444	      8.02951742	     -2.96244472	    -18.40716506	      6.17556479	     -8.77318426	      0.73157358	     24.62148419	     -4.15093389	      0.51404084	    -70.86097423	     -2.00166019	    -10.29801835	      2.87957433	      4.21509432	      6.28862266	      3.07409388
      0.96750000	     -6.41404651	     -2.95141816	      1.40541495	     -0.33012899	      0.99519722	      0.33857291	     16.57868225	      7.99215559	     -2.84602931	    -18.08431349	      6.27582441	     -8.52836796	      0.72559392	     25.17321614	     -4.07440462	      0.43109933	    -70.67437214	     -1.54801989	    -10.34135304	      2.76218299	      4.11878625	      6.22720910	      3.30060853
      0.97166667	     -6.42189187	     -2.88487955	      1.20395726	     -0.32551150	      0.99573062	      0.33885816	     16.11719924	      7.97293787	     -2.71240278	    -17.77508194	      6.36278944	     -8.32654548	      0.72762773	     25.77142708	     -4.01864841	      0.34998905	    -70.46304214	     -1.11007063	    -10.39718175	      2.69715639	      4.06177515	      6.19255758	      3.45188319
      0.97583333	     -6.40793254	     -2.80098642	      1.00398879	     -0.32086037	      0.99629779	      0.33913043	     15.62509443	      7.93064782	     -2.58458604	    -17.45458501	      6.45313477	     -8.08144745	      0.73428864	     26.31715415	     -3.94420246	      0.26953738	    -70.17848893	     -0.68938365	    -10.37992650	      2.62945343	      3.98183182	      6.13342262	      3.66657193
      0.98000000	     -6.36571902	     -2.73806903	      0.81741810	     -0.31618218	      0.99687016	      0.33937938	     15.09289340	      7.90192050	     -2.49591052	    -17.11194541	      6.54293473	     -7.80714913	      0.74725201	     26.82336919	     -3.89412068	      0.20154767	    -69.85557033	     -0.30185499	    -10.31531954	      2.53413918	      3.89529075	      6.08918678	      3.94478243
      0.98416667	     -6.38657929	     -2.66505590	      0.60152230	     -0.31157358	      0.99730820	      0.33964030	     14.64840931	      7.86799843	     -2.34496098	    -16.80378504	      6.62074839	     -7.59999788	      0.76023606	     27.38497677	     -3.83341341	      0.12234594	    -69.49148864	      0.07483444	    -10.29510474	      2.48331667	      3.85440987	      6.05769376	      4.09675383
      0.98833333	     -6.35150890	     -2.58950519	      0.39969999	     -0.30692339	      0.99781582	      0.33987999	     14.13045321	      7.82349709	     -2.22453161	    -16.46950664	      6.69677964	     -7.34405846	      0.77975236	     27.86482694	     -3.77327184	      0.04543642	    -69.06941573	      0.44084470	    -10.18468339	      2.42510890	      3.76286479	      6.01232235	      4.32844139
      0.99250000	     -6.35105139	     -2.53646682	      0.20754816	     -0.30230152	      0.99819653	      0.34011386	     13.65892468	      7.79796041	     -2.13006347	    -16.14648230	      6.77987144	     -7.09119956	      0.80869758	     28.38400268	     -3.73465452	     -0.00945738	    -68.62725468	      0.77945127	    -10.05103584	      2.35369365	      3.71394129	      5.97374240	      4.58394883
      0.99666667	     -6.33234644	     -2.46065963	     -0.00935933	     -0.29766910	      0.99861763	      0.34036068	     13.16513796	      7.75314891	     -1.97451769	    -15.82321859	      6.84314798	     -6.87097152	      0.83151713	     28.84931268	     -3.68142032	     -0.09428969	    -68.11458894	      1.10503398	     -9.95129771	      2.31555218	      3.63618895	      5.93221585	      4.73748056
      1.00083333	     -6.34149865	     -2.39700503	     -0.20835788	     -0.29305224	      0.99893407	      0.34059259	     12.70505926	      7.71463999	     -1.85015706	    -15.50007077	      6.91070377	     -6.64076454	      0.85746293	     29.34307789	     -3.63668494	     -0.15584947	    -67.57577575	      1.41509090	     -9.78680984	      2.28386880	      3.59464464	      5.87994389	      4.92638388
      1.00500000	     -6.30903431	     -2.33967431	     -0.40867395	     -0.28842586	      0.99929262	      0.34079260	     12.19863969	      7.67646572	     -1.73338622	    -15.17403226	      6.97575336	     -6.39600565	      0.89031239	     29.76982372	     -3.59364131	     -0.20551967	    -66.98613213	      1.71404279	     -9.58045660	      2.25086506	      3.50721728	      5.86501712	      5.15253829
      1.00916667	     -6.31055811	     -2.28267268	     -0.60942910	     -0.28381912	      0.99955117	      0.34100400	     11.73355018	      7.63910205	     -1.60265199	    -14.85332997	      7.03854494	     -6.17279531	      0.92340350	     30.22372768	     -3.55490053	     -0.25555804	    -66.36086862	      1.99458046	     -9.37335070	      2.22601976	      3.45569776	      5.82938197	      5.34375022
      1.01333333	     -6.29103310	     -2.24171043	     -0.78524060	     -0.27919469	      0.99980817	      0.34118284	     11.24031477	      7.61003136	     -1.51529166	    -14.52028338	      7.10453206	     -5.93428773	      0.97532344	     30.64374861	     -3.52235225	     -0.27523131	    -65.69969611	      2.26355017	     -9.13092662	      2.19087896	      3.38563041	      5.80370711	      5.59841726
      1.01750000	     -6.28113345	     -2.18186251	     -0.99334927	     -0.27459679	      1.00003265	      0.34139212	     10.76624409	      7.56777527	     -1.35294101	    -14.20453549	      7.15837057	     -5.73231104	      1.00931480	     31.04698406	     -3.48485766	     -0.32735814	    -64.98205577	      2.50700927	     -8.90584884	      2.17698526	      3.31773738	      5.77364723	      5.73231445
      1.02166667	     -6.25789127	     -2.14594053	     -1.17437728	     -0.26998047	      1.00022595	      0.34157166	     10.27067403	      7.54313276	     -1.23123284	    -13.87263759	      7.21238293	     -5.52365498	      1.04735990	     31.42916641	     -3.46306276	     -0.34712175	    -64.23740684	      2.75554812	     -8.63126282	      2.16678493	      3.24265286	      5.76028120	      5.91514161
